<svg width="167" height="43" viewBox="0 0 167 43" fill="none" xmlns="http://www.w3.org/2000/svg">
<path d="M45.8608 25.2727H47.7955L50.3864 31.5966H50.4886L53.0795 25.2727H55.0142V34H53.4972V28.0043H53.4162L51.0043 33.9744H49.8707L47.4588 27.9915H47.3778V34H45.8608V25.2727ZM58.5511 34.1321C58.1364 34.1321 57.7628 34.0582 57.4304 33.9105C57.1009 33.7599 56.8395 33.5384 56.6463 33.2457C56.456 32.9531 56.3608 32.5923 56.3608 32.1634C56.3608 31.794 56.429 31.4886 56.5653 31.2472C56.7017 31.0057 56.8878 30.8125 57.1236 30.6676C57.3594 30.5227 57.625 30.4134 57.9205 30.3395C58.2188 30.2628 58.527 30.2074 58.8452 30.1733C59.2287 30.1335 59.5398 30.098 59.7784 30.0668C60.017 30.0327 60.1903 29.9815 60.2983 29.9134C60.4091 29.8423 60.4645 29.733 60.4645 29.5852V29.5597C60.4645 29.2386 60.3693 28.9901 60.179 28.8139C59.9886 28.6378 59.7145 28.5497 59.3565 28.5497C58.9787 28.5497 58.679 28.6321 58.4574 28.7969C58.2386 28.9616 58.0909 29.1562 58.0142 29.3807L56.5739 29.1761C56.6875 28.7784 56.875 28.446 57.1364 28.179C57.3977 27.9091 57.7173 27.7074 58.0952 27.5739C58.473 27.4375 58.8906 27.3693 59.348 27.3693C59.6634 27.3693 59.9773 27.4062 60.2898 27.4801C60.6023 27.554 60.8878 27.6761 61.1463 27.8466C61.4048 28.0142 61.6122 28.2429 61.7685 28.5327C61.9276 28.8224 62.0071 29.1847 62.0071 29.6193V34H60.5241V33.1009H60.473C60.3793 33.2827 60.2472 33.4531 60.0767 33.6122C59.9091 33.7685 59.6974 33.8949 59.4418 33.9915C59.1889 34.0852 58.892 34.1321 58.5511 34.1321ZM58.9517 32.9986C59.2614 32.9986 59.5298 32.9375 59.7571 32.8153C59.9844 32.6903 60.1591 32.5256 60.2812 32.321C60.4062 32.1165 60.4688 31.8935 60.4688 31.652V30.8807C60.4205 30.9205 60.3381 30.9574 60.2216 30.9915C60.108 31.0256 59.9801 31.0554 59.8381 31.081C59.696 31.1065 59.5554 31.1293 59.4162 31.1491C59.277 31.169 59.1563 31.1861 59.054 31.2003C58.8239 31.2315 58.6179 31.2827 58.4361 31.3537C58.2543 31.4247 58.1108 31.5241 58.0057 31.652C57.9006 31.777 57.848 31.9389 57.848 32.1378C57.848 32.4219 57.9517 32.6364 58.1591 32.7812C58.3665 32.9261 58.6307 32.9986 58.9517 32.9986ZM65.1009 30.1648V34H63.5582V27.4545H65.0327V28.5668H65.1094C65.2599 28.2003 65.5 27.9091 65.8295 27.6932C66.1619 27.4773 66.5724 27.3693 67.0611 27.3693C67.5128 27.3693 67.9063 27.4659 68.2415 27.6591C68.5795 27.8523 68.8409 28.1321 69.0256 28.4986C69.2131 28.8651 69.3054 29.3097 69.3026 29.8324V34H67.7599V30.071C67.7599 29.6335 67.6463 29.2912 67.419 29.044C67.1946 28.7969 66.8835 28.6733 66.4858 28.6733C66.2159 28.6733 65.9759 28.733 65.7656 28.8523C65.5582 28.9687 65.3949 29.1378 65.2756 29.3594C65.1591 29.581 65.1009 29.8494 65.1009 30.1648ZM72.7543 34.1321C72.3395 34.1321 71.9659 34.0582 71.6335 33.9105C71.304 33.7599 71.0426 33.5384 70.8494 33.2457C70.6591 32.9531 70.5639 32.5923 70.5639 32.1634C70.5639 31.794 70.6321 31.4886 70.7685 31.2472C70.9048 31.0057 71.0909 30.8125 71.3267 30.6676C71.5625 30.5227 71.8281 30.4134 72.1236 30.3395C72.4219 30.2628 72.7301 30.2074 73.0483 30.1733C73.4318 30.1335 73.7429 30.098 73.9815 30.0668C74.2202 30.0327 74.3935 29.9815 74.5014 29.9134C74.6122 29.8423 74.6676 29.733 74.6676 29.5852V29.5597C74.6676 29.2386 74.5724 28.9901 74.3821 28.8139C74.1918 28.6378 73.9176 28.5497 73.5597 28.5497C73.1818 28.5497 72.8821 28.6321 72.6605 28.7969C72.4418 28.9616 72.294 29.1562 72.2173 29.3807L70.777 29.1761C70.8906 28.7784 71.0781 28.446 71.3395 28.179C71.6009 27.9091 71.9205 27.7074 72.2983 27.5739C72.6761 27.4375 73.0938 27.3693 73.5511 27.3693C73.8665 27.3693 74.1804 27.4062 74.4929 27.4801C74.8054 27.554 75.0909 27.6761 75.3494 27.8466C75.608 28.0142 75.8153 28.2429 75.9716 28.5327C76.1307 28.8224 76.2102 29.1847 76.2102 29.6193V34H74.7273V33.1009H74.6761C74.5824 33.2827 74.4503 33.4531 74.2798 33.6122C74.1122 33.7685 73.9006 33.8949 73.6449 33.9915C73.392 34.0852 73.0952 34.1321 72.7543 34.1321ZM73.1548 32.9986C73.4645 32.9986 73.733 32.9375 73.9602 32.8153C74.1875 32.6903 74.3622 32.5256 74.4844 32.321C74.6094 32.1165 74.6719 31.8935 74.6719 31.652V30.8807C74.6236 30.9205 74.5412 30.9574 74.4247 30.9915C74.3111 31.0256 74.1832 31.0554 74.0412 31.081C73.8991 31.1065 73.7585 31.1293 73.6193 31.1491C73.4801 31.169 73.3594 31.1861 73.2571 31.2003C73.027 31.2315 72.821 31.2827 72.6392 31.3537C72.4574 31.4247 72.3139 31.5241 72.2088 31.652C72.1037 31.777 72.0511 31.9389 72.0511 32.1378C72.0511 32.4219 72.1548 32.6364 72.3622 32.7812C72.5696 32.9261 72.8338 32.9986 73.1548 32.9986ZM80.608 36.5909C80.054 36.5909 79.5781 36.5156 79.1804 36.3651C78.7827 36.2173 78.4631 36.0185 78.2216 35.7685C77.9801 35.5185 77.8125 35.2415 77.7188 34.9375L79.108 34.6009C79.1705 34.7287 79.2614 34.8551 79.3807 34.9801C79.5 35.108 79.6605 35.2131 79.8622 35.2955C80.0668 35.3807 80.3239 35.4233 80.6335 35.4233C81.071 35.4233 81.4332 35.3168 81.7202 35.1037C82.0071 34.8935 82.1506 34.5469 82.1506 34.0639V32.8239H82.0739C81.9943 32.983 81.8778 33.1463 81.7244 33.3139C81.5739 33.4815 81.3736 33.6222 81.1236 33.7358C80.8764 33.8494 80.5653 33.9062 80.1903 33.9062C79.6875 33.9062 79.2315 33.7884 78.8224 33.5526C78.4162 33.3139 78.0923 32.9588 77.8509 32.4872C77.6122 32.0128 77.4929 31.419 77.4929 30.706C77.4929 29.9872 77.6122 29.3807 77.8509 28.8864C78.0923 28.3892 78.4176 28.0128 78.8267 27.7571C79.2358 27.4986 79.6918 27.3693 80.1946 27.3693C80.5781 27.3693 80.8935 27.4347 81.1406 27.5653C81.3906 27.6932 81.5895 27.848 81.7372 28.0298C81.8849 28.2088 81.9972 28.3778 82.0739 28.5369H82.1591V27.4545H83.6804V34.1065C83.6804 34.6662 83.5469 35.1293 83.2798 35.4957C83.0128 35.8622 82.6477 36.1364 82.1847 36.3182C81.7216 36.5 81.196 36.5909 80.608 36.5909ZM80.6207 32.696C80.9474 32.696 81.2259 32.6165 81.456 32.4574C81.6861 32.2983 81.8608 32.0696 81.9801 31.7713C82.0994 31.473 82.1591 31.1151 82.1591 30.6974C82.1591 30.2855 82.0994 29.9247 81.9801 29.6151C81.8636 29.3054 81.6903 29.0653 81.4602 28.8949C81.233 28.7216 80.9531 28.6349 80.6207 28.6349C80.277 28.6349 79.9901 28.7244 79.7599 28.9034C79.5298 29.0824 79.3565 29.3281 79.2401 29.6406C79.1236 29.9503 79.0653 30.3026 79.0653 30.6974C79.0653 31.098 79.1236 31.4489 79.2401 31.75C79.3594 32.0483 79.5341 32.2812 79.7642 32.4489C79.9972 32.6136 80.2827 32.696 80.6207 32.696ZM88.1591 34.1278C87.5028 34.1278 86.9361 33.9915 86.4588 33.7188C85.9844 33.4432 85.6193 33.054 85.3636 32.5511C85.108 32.0455 84.9801 31.4503 84.9801 30.7656C84.9801 30.0923 85.108 29.5014 85.3636 28.9929C85.6222 28.4815 85.983 28.0838 86.446 27.7997C86.9091 27.5128 87.4531 27.3693 88.0781 27.3693C88.4815 27.3693 88.8622 27.4347 89.2202 27.5653C89.581 27.6932 89.8991 27.892 90.1747 28.1619C90.4531 28.4318 90.6719 28.7756 90.831 29.1932C90.9901 29.608 91.0696 30.1023 91.0696 30.6761V31.1491H85.7045V30.1094H89.5909C89.5881 29.8139 89.5241 29.5511 89.3991 29.321C89.2741 29.0881 89.0994 28.9048 88.875 28.7713C88.6534 28.6378 88.3949 28.571 88.0994 28.571C87.7841 28.571 87.5071 28.6477 87.2685 28.8011C87.0298 28.9517 86.8438 29.1506 86.7102 29.3977C86.5795 29.642 86.5128 29.9105 86.5099 30.2031V31.1108C86.5099 31.4915 86.5795 31.8182 86.7188 32.0909C86.858 32.3608 87.0526 32.5682 87.3026 32.7131C87.5526 32.8551 87.8452 32.9261 88.1804 32.9261C88.4048 32.9261 88.608 32.8949 88.7898 32.8324C88.9716 32.767 89.1293 32.6719 89.2628 32.5469C89.3963 32.4219 89.4972 32.267 89.5653 32.0824L91.0057 32.2443C90.9148 32.625 90.7415 32.9574 90.4858 33.2415C90.233 33.5227 89.9091 33.7415 89.5142 33.8977C89.1193 34.0511 88.6676 34.1278 88.1591 34.1278ZM92.3746 34V27.4545H93.8491V28.5668H93.9258C94.0621 28.1918 94.288 27.8991 94.6033 27.6889C94.9187 27.4759 95.2951 27.3693 95.7326 27.3693C96.1758 27.3693 96.5494 27.4773 96.8533 27.6932C97.1602 27.9062 97.3761 28.1974 97.5011 28.5668H97.5692C97.7141 28.2031 97.9585 27.9134 98.3022 27.6974C98.6488 27.4787 99.0593 27.3693 99.5337 27.3693C100.136 27.3693 100.627 27.5597 101.008 27.9403C101.389 28.321 101.579 28.8764 101.579 29.6065V34H100.032V29.8452C100.032 29.4389 99.9244 29.142 99.7085 28.9545C99.4925 28.7642 99.2283 28.669 98.9158 28.669C98.5437 28.669 98.2525 28.7855 98.0423 29.0185C97.8349 29.2486 97.7312 29.5483 97.7312 29.9176V34H96.2184V29.7812C96.2184 29.4432 96.1161 29.1733 95.9116 28.9716C95.7099 28.7699 95.4457 28.669 95.119 28.669C94.8974 28.669 94.6957 28.7259 94.5138 28.8395C94.332 28.9503 94.1871 29.108 94.0792 29.3125C93.9712 29.5142 93.9173 29.75 93.9173 30.0199V34H92.3746ZM106.042 34.1278C105.386 34.1278 104.819 33.9915 104.342 33.7188C103.867 33.4432 103.502 33.054 103.246 32.5511C102.991 32.0455 102.863 31.4503 102.863 30.7656C102.863 30.0923 102.991 29.5014 103.246 28.9929C103.505 28.4815 103.866 28.0838 104.329 27.7997C104.792 27.5128 105.336 27.3693 105.961 27.3693C106.364 27.3693 106.745 27.4347 107.103 27.5653C107.464 27.6932 107.782 27.892 108.058 28.1619C108.336 28.4318 108.555 28.7756 108.714 29.1932C108.873 29.608 108.952 30.1023 108.952 30.6761V31.1491H103.587V30.1094H107.474C107.471 29.8139 107.407 29.5511 107.282 29.321C107.157 29.0881 106.982 28.9048 106.758 28.7713C106.536 28.6378 106.278 28.571 105.982 28.571C105.667 28.571 105.39 28.6477 105.151 28.8011C104.913 28.9517 104.727 29.1506 104.593 29.3977C104.462 29.642 104.396 29.9105 104.393 30.2031V31.1108C104.393 31.4915 104.462 31.8182 104.602 32.0909C104.741 32.3608 104.935 32.5682 105.185 32.7131C105.435 32.8551 105.728 32.9261 106.063 32.9261C106.288 32.9261 106.491 32.8949 106.673 32.8324C106.854 32.767 107.012 32.6719 107.146 32.5469C107.279 32.4219 107.38 32.267 107.448 32.0824L108.888 32.2443C108.798 32.625 108.624 32.9574 108.369 33.2415C108.116 33.5227 107.792 33.7415 107.397 33.8977C107.002 34.0511 106.55 34.1278 106.042 34.1278ZM111.8 30.1648V34H110.257V27.4545H111.732V28.5668H111.809C111.959 28.2003 112.199 27.9091 112.529 27.6932C112.861 27.4773 113.272 27.3693 113.76 27.3693C114.212 27.3693 114.605 27.4659 114.941 27.6591C115.279 27.8523 115.54 28.1321 115.725 28.4986C115.912 28.8651 116.005 29.3097 116.002 29.8324V34H114.459V30.071C114.459 29.6335 114.346 29.2912 114.118 29.044C113.894 28.7969 113.583 28.6733 113.185 28.6733C112.915 28.6733 112.675 28.733 112.465 28.8523C112.257 28.9687 112.094 29.1378 111.975 29.3594C111.858 29.581 111.8 29.8494 111.8 30.1648ZM120.838 27.4545V28.6477H117.076V27.4545H120.838ZM118.005 25.8864H119.547V32.0312C119.547 32.2386 119.578 32.3977 119.641 32.5085C119.706 32.6165 119.792 32.6903 119.897 32.7301C120.002 32.7699 120.118 32.7898 120.246 32.7898C120.343 32.7898 120.431 32.7827 120.51 32.7685C120.593 32.7543 120.655 32.7415 120.698 32.7301L120.958 33.9361C120.875 33.9645 120.757 33.9957 120.604 34.0298C120.453 34.0639 120.269 34.0838 120.05 34.0895C119.664 34.1009 119.316 34.0426 119.006 33.9148C118.696 33.7841 118.451 33.5824 118.269 33.3097C118.09 33.0369 118.002 32.696 118.005 32.2869V25.8864ZM130.278 29.1847L128.872 29.3381C128.832 29.196 128.763 29.0625 128.663 28.9375C128.567 28.8125 128.436 28.7116 128.271 28.6349C128.107 28.5582 127.905 28.5199 127.666 28.5199C127.345 28.5199 127.075 28.5895 126.857 28.7287C126.641 28.8679 126.534 29.0483 126.537 29.2699C126.534 29.4602 126.604 29.6151 126.746 29.7344C126.891 29.8537 127.129 29.9517 127.462 30.0284L128.578 30.267C129.197 30.4006 129.658 30.6122 129.959 30.902C130.263 31.1918 130.416 31.571 130.419 32.0398C130.416 32.4517 130.295 32.8153 130.057 33.1307C129.821 33.4432 129.493 33.6875 129.072 33.8636C128.652 34.0398 128.169 34.1278 127.624 34.1278C126.822 34.1278 126.178 33.9602 125.689 33.625C125.2 33.2869 124.909 32.8168 124.815 32.2145L126.32 32.0696C126.388 32.3651 126.533 32.5881 126.754 32.7386C126.976 32.8892 127.264 32.9645 127.619 32.9645C127.986 32.9645 128.28 32.8892 128.501 32.7386C128.726 32.5881 128.838 32.402 128.838 32.1804C128.838 31.9929 128.766 31.8381 128.621 31.7159C128.479 31.5937 128.257 31.5 127.956 31.4347L126.839 31.2003C126.212 31.0696 125.747 30.8494 125.446 30.5398C125.145 30.2273 124.996 29.8324 124.999 29.3551C124.996 28.9517 125.105 28.6023 125.327 28.3068C125.551 28.0085 125.862 27.7784 126.26 27.6165C126.661 27.4517 127.122 27.3693 127.645 27.3693C128.412 27.3693 129.016 27.5327 129.456 27.8594C129.899 28.1861 130.173 28.6278 130.278 29.1847ZM132.65 36.4545C132.44 36.4545 132.245 36.4375 132.066 36.4034C131.89 36.3722 131.749 36.3352 131.644 36.2926L132.002 35.0909C132.227 35.1563 132.427 35.1875 132.603 35.1847C132.779 35.1818 132.934 35.1264 133.067 35.0185C133.204 34.9134 133.319 34.7372 133.413 34.4901L133.545 34.1364L131.171 27.4545H132.808L134.316 32.3977H134.384L135.897 27.4545H137.538L134.917 34.7926C134.795 35.1392 134.633 35.4361 134.431 35.6832C134.229 35.9332 133.982 36.1236 133.69 36.2543C133.4 36.3878 133.053 36.4545 132.65 36.4545ZM143.778 29.1847L142.372 29.3381C142.332 29.196 142.263 29.0625 142.163 28.9375C142.067 28.8125 141.936 28.7116 141.771 28.6349C141.607 28.5582 141.405 28.5199 141.166 28.5199C140.845 28.5199 140.575 28.5895 140.357 28.7287C140.141 28.8679 140.034 29.0483 140.037 29.2699C140.034 29.4602 140.104 29.6151 140.246 29.7344C140.391 29.8537 140.629 29.9517 140.962 30.0284L142.078 30.267C142.697 30.4006 143.158 30.6122 143.459 30.902C143.763 31.1918 143.916 31.571 143.919 32.0398C143.916 32.4517 143.795 32.8153 143.557 33.1307C143.321 33.4432 142.993 33.6875 142.572 33.8636C142.152 34.0398 141.669 34.1278 141.124 34.1278C140.322 34.1278 139.678 33.9602 139.189 33.625C138.7 33.2869 138.409 32.8168 138.315 32.2145L139.82 32.0696C139.888 32.3651 140.033 32.5881 140.254 32.7386C140.476 32.8892 140.764 32.9645 141.119 32.9645C141.486 32.9645 141.78 32.8892 142.001 32.7386C142.226 32.5881 142.338 32.402 142.338 32.1804C142.338 31.9929 142.266 31.8381 142.121 31.7159C141.979 31.5937 141.757 31.5 141.456 31.4347L140.339 31.2003C139.712 31.0696 139.247 30.8494 138.946 30.5398C138.645 30.2273 138.496 29.8324 138.499 29.3551C138.496 28.9517 138.605 28.6023 138.827 28.3068C139.051 28.0085 139.362 27.7784 139.76 27.6165C140.161 27.4517 140.622 27.3693 141.145 27.3693C141.912 27.3693 142.516 27.5327 142.956 27.8594C143.399 28.1861 143.673 28.6278 143.778 29.1847ZM148.46 27.4545V28.6477H144.697V27.4545H148.46ZM145.626 25.8864H147.168V32.0312C147.168 32.2386 147.2 32.3977 147.262 32.5085C147.327 32.6165 147.413 32.6903 147.518 32.7301C147.623 32.7699 147.739 32.7898 147.867 32.7898C147.964 32.7898 148.052 32.7827 148.131 32.7685C148.214 32.7543 148.276 32.7415 148.319 32.7301L148.579 33.9361C148.496 33.9645 148.379 33.9957 148.225 34.0298C148.075 34.0639 147.89 34.0838 147.671 34.0895C147.285 34.1009 146.937 34.0426 146.627 33.9148C146.317 33.7841 146.072 33.5824 145.89 33.3097C145.711 33.0369 145.623 32.696 145.626 32.2869V25.8864ZM152.577 34.1278C151.921 34.1278 151.354 33.9915 150.877 33.7188C150.402 33.4432 150.037 33.054 149.782 32.5511C149.526 32.0455 149.398 31.4503 149.398 30.7656C149.398 30.0923 149.526 29.5014 149.782 28.9929C150.04 28.4815 150.401 28.0838 150.864 27.7997C151.327 27.5128 151.871 27.3693 152.496 27.3693C152.9 27.3693 153.28 27.4347 153.638 27.5653C153.999 27.6932 154.317 27.892 154.593 28.1619C154.871 28.4318 155.09 28.7756 155.249 29.1932C155.408 29.608 155.488 30.1023 155.488 30.6761V31.1491H150.123V30.1094H154.009C154.006 29.8139 153.942 29.5511 153.817 29.321C153.692 29.0881 153.517 28.9048 153.293 28.7713C153.071 28.6378 152.813 28.571 152.517 28.571C152.202 28.571 151.925 28.6477 151.686 28.8011C151.448 28.9517 151.262 29.1506 151.128 29.3977C150.998 29.642 150.931 29.9105 150.928 30.2031V31.1108C150.928 31.4915 150.998 31.8182 151.137 32.0909C151.276 32.3608 151.471 32.5682 151.721 32.7131C151.971 32.8551 152.263 32.9261 152.598 32.9261C152.823 32.9261 153.026 32.8949 153.208 32.8324C153.39 32.767 153.547 32.6719 153.681 32.5469C153.814 32.4219 153.915 32.267 153.983 32.0824L155.424 32.2443C155.333 32.625 155.159 32.9574 154.904 33.2415C154.651 33.5227 154.327 33.7415 153.932 33.8977C153.537 34.0511 153.086 34.1278 152.577 34.1278ZM156.793 34V27.4545H158.267V28.5668H158.344C158.48 28.1918 158.706 27.8991 159.021 27.6889C159.337 27.4759 159.713 27.3693 160.151 27.3693C160.594 27.3693 160.967 27.4773 161.271 27.6932C161.578 27.9062 161.794 28.1974 161.919 28.5668H161.987C162.132 28.2031 162.376 27.9134 162.72 27.6974C163.067 27.4787 163.477 27.3693 163.952 27.3693C164.554 27.3693 165.045 27.5597 165.426 27.9403C165.807 28.321 165.997 28.8764 165.997 29.6065V34H164.45V29.8452C164.45 29.4389 164.342 29.142 164.126 28.9545C163.911 28.7642 163.646 28.669 163.334 28.669C162.962 28.669 162.67 28.7855 162.46 29.0185C162.253 29.2486 162.149 29.5483 162.149 29.9176V34H160.636V29.7812C160.636 29.4432 160.534 29.1733 160.33 28.9716C160.128 28.7699 159.864 28.669 159.537 28.669C159.315 28.669 159.114 28.7259 158.932 28.8395C158.75 28.9503 158.605 29.108 158.497 29.3125C158.389 29.5142 158.335 29.75 158.335 30.0199V34H156.793Z" fill="black"/>
<path opacity="0.6" d="M26.25 28.6667C26.25 31.8379 24.8063 34.7046 22.5 36.6575C20.5125 38.3775 17.8875 39.4167 15 39.4167C8.79375 39.4167 3.75 34.5971 3.75 28.6667C3.75 23.7217 7.275 19.5292 12.0375 18.2929C13.3313 21.4104 16.1063 23.8112 19.5375 24.7071C20.475 24.9579 21.4687 25.0833 22.5 25.0833C23.5313 25.0833 24.525 24.9579 25.4625 24.7071C25.9687 25.9254 26.25 27.2692 26.25 28.6667Z" fill="#5030E5"/>
<path d="M33.75 14.3333C33.75 15.7308 33.4687 17.0746 32.9625 18.2929C31.6687 21.4104 28.8937 23.8113 25.4625 24.7071C24.525 24.9579 23.5313 25.0833 22.5 25.0833C21.4687 25.0833 20.475 24.9579 19.5375 24.7071C16.1063 23.8113 13.3313 21.4104 12.0375 18.2929C11.5313 17.0746 11.25 15.7308 11.25 14.3333C11.25 8.40293 16.2938 3.58334 22.5 3.58334C28.7062 3.58334 33.75 8.40293 33.75 14.3333Z" fill="#5030E5"/>
<path opacity="0.4" d="M41.25 28.6667C41.25 34.5971 36.2062 39.4167 30 39.4167C27.1125 39.4167 24.4875 38.3775 22.5 36.6575C24.8063 34.7046 26.25 31.8379 26.25 28.6667C26.25 27.2692 25.9687 25.9254 25.4625 24.7071C28.8937 23.8112 31.6687 21.4104 32.9625 18.2929C37.725 19.5292 41.25 23.7217 41.25 28.6667Z" fill="#5030E5"/>
<path d="M46.4347 19V4.45455H49.0696V10.6122H55.8097V4.45455H58.4517V19H55.8097V12.821H49.0696V19H46.4347ZM61.3175 19V4.45455H66.772C67.8894 4.45455 68.8269 4.64867 69.5845 5.03693C70.3468 5.42519 70.9221 5.9697 71.3104 6.67045C71.7034 7.36648 71.8999 8.1785 71.8999 9.10653C71.8999 10.0393 71.701 10.849 71.3033 11.5355C70.9103 12.2173 70.3303 12.7453 69.5632 13.1193C68.7962 13.4886 67.8539 13.6733 66.7365 13.6733H62.8516V11.4858H66.3814C67.0348 11.4858 67.5698 11.3958 67.9865 11.2159C68.4032 11.0312 68.7109 10.7637 68.9098 10.4134C69.1134 10.0582 69.2152 9.62263 69.2152 9.10653C69.2152 8.59044 69.1134 8.15009 68.9098 7.78551C68.7062 7.41619 68.3961 7.13684 67.9794 6.94744C67.5627 6.75331 67.0253 6.65625 66.3672 6.65625H63.9524V19H61.3175ZM68.8317 12.4091L72.4325 19H69.4922L65.9553 12.4091H68.8317Z" fill="#0D062D"/>
</svg>
